<?xml version="1.0" encoding="utf-8"?>
<!-- Generator: Adobe Illustrator 24.3.0, SVG Export Plug-In . SVG Version: 6.00 Build 0)  -->
<svg version="1.1" id="Layer_1" xmlns="http://www.w3.org/2000/svg" xmlns:xlink="http://www.w3.org/1999/xlink" x="0px" y="0px"
	 viewBox="0 0 1377 1042" style="enable-background:new 0 0 1377 1042;" xml:space="preserve">
<style type="text/css">
	.st0{fill:none;stroke:#000000;stroke-width:4;stroke-miterlimit:10;}
	.st1{fill:none;stroke:#000000;stroke-width:5;stroke-miterlimit:10;}
</style>
<polygon class="st0" points="1336.07,470.29 1336.07,449.86 1289.09,405.95 1017.43,369.18 920.41,265.52 732.49,240.5 
	736.58,111.82 669.17,56.67 232.07,56.67 121.77,112.84 127.9,199.65 249.43,251.73 436.32,268.07 203.47,300.75 134.03,386.54 
	134.03,474.37 134.03,490.71 134.03,578.54 203.47,664.33 436.32,697.01 249.43,713.35 127.9,765.44 121.77,852.24 232.07,908.41 
	669.17,908.41 736.58,853.27 732.49,724.58 920.41,699.56 1017.43,595.9 1289.09,559.14 1336.07,515.22 1336.07,482.54 "/>
<polyline class="st0" points="232.07,56.67 182.03,124.07 182.03,182.29 249.43,251.73 "/>
<polyline class="st0" points="232.07,908.41 182.03,841.01 182.03,782.8 249.43,713.35 "/>
<polyline class="st1" points="693.68,219.05 271.9,219.05 271.9,186.37 226.96,186.37 226.96,134.29 249.43,134.29 249.43,98.54 
	676.32,98.54 "/>
<line class="st1" x1="226.96" y1="158.8" x2="682.45" y2="158.8"/>
<line class="st1" x1="293.34" y1="129.18" x2="736.03" y2="129.18"/>
<line class="st1" x1="313.77" y1="188.41" x2="736.03" y2="188.41"/>
<polyline class="st1" points="322.96,499.9 293.34,499.9 293.34,533.61 354.62,533.61 354.62,468.24 249.43,468.24 249.43,568.33 
	396.49,568.33 396.49,431.48 215.73,431.48 215.73,597.95 418.96,597.95 418.96,405.95 182.03,405.95 182.03,510.12 "/>
<polyline class="st1" points="177.67,332.63 454.71,332.63 454.71,622.46 386.28,633.69 "/>
<polyline class="st1" points="134.03,516.24 215.73,614.29 454.71,697.01 "/>
<line class="st1" x1="322.96" y1="597.95" x2="322.96" y2="651.41"/>
<line class="st1" x1="204.49" y1="332.63" x2="204.49" y2="372.24"/>
<line class="st1" x1="288.24" y1="332.63" x2="288.24" y2="372.24"/>
<line class="st1" x1="246.37" y1="366.74" x2="246.37" y2="406.35"/>
<line class="st1" x1="332.15" y1="366.74" x2="332.15" y2="406.35"/>
<line class="st1" x1="378.11" y1="332.63" x2="378.11" y2="372.24"/>
<line class="st1" x1="418.96" y1="366.74" x2="418.96" y2="406.35"/>
<polyline class="st1" points="454.71,622.46 500.66,622.46 500.66,872.67 "/>
<line class="st1" x1="366.88" y1="799.14" x2="648.75" y2="799.14"/>
<polygon class="st1" points="354.28,725.24 371.98,718.09 379.47,735.11 361.77,741.58 "/>
<polygon class="st1" points="271.83,839.1 289.53,831.95 297.02,848.97 279.32,855.44 "/>
<polygon class="st1" points="317.22,881.52 334.92,874.37 342.41,891.39 324.71,897.86 "/>
<polygon class="st1" points="267.95,772.97 285.65,765.82 293.14,782.84 275.44,789.31 "/>
<polygon class="st1" points="442.11,881.52 459.81,874.37 467.3,891.39 449.6,897.86 "/>
<polygon class="st1" points="393.17,832.89 410.87,825.74 418.36,842.76 400.66,849.23 "/>
<polygon class="st1" points="457.98,772.97 475.68,765.82 483.17,782.84 465.47,789.31 "/>
<polygon class="st1" points="531.56,818.07 549.26,810.93 556.75,827.95 539.05,834.41 "/>
<polygon class="st1" points="576.92,885.09 594.62,877.94 602.11,894.96 584.41,901.43 "/>
<polygon class="st1" points="694.38,839.1 712.08,831.95 719.57,848.97 701.87,855.44 "/>
<polygon class="st1" points="688.5,708.75 706.2,701.61 713.69,718.63 695.99,725.1 "/>
<polygon class="st1" points="623.56,762.93 641.26,755.78 648.75,772.8 631.05,779.27 "/>
<polygon class="st1" points="581.99,713.49 599.69,706.34 607.18,723.36 589.48,729.83 "/>
<polyline class="st1" points="732.49,724.58 732.49,680.16 552.75,680.16 552.75,622.46 594.58,622.46 594.58,259.65 514.69,259.65 
	514.69,219.05 "/>
<line class="st1" x1="454.71" y1="332.63" x2="454.71" y2="268.07"/>
<polyline class="st1" points="454.71,379.14 500.66,379.14 483.17,352.44 "/>
<polyline class="st1" points="546.62,379.14 594.58,379.14 639.3,379.14 "/>
<line class="st1" x1="454.71" y1="464.93" x2="507.81" y2="464.93"/>
<polyline class="st1" points="564.24,435.82 554.28,464.93 594.58,464.93 "/>
<rect x="511.39" y="501.95" class="st1" width="27.57" height="26.55"/>
<rect x="511.39" y="557.1" class="st1" width="27.57" height="26.55"/>
<rect x="507.81" y="292.07" class="st1" width="27.57" height="26.55"/>
<line class="st1" x1="732.49" y1="240.5" x2="639.3" y2="255.05"/>
<polyline class="st1" points="594.58,295.65 881.34,295.65 892.07,352.44 "/>
<path class="st1" d="M1017.43,369.18"/>
<polyline class="st1" points="1059.01,379.14 701.1,379.14 718.96,358.84 "/>
<line class="st1" x1="844.58" y1="328.58" x2="844.58" y2="379.14"/>
<line class="st1" x1="804.75" y1="295.65" x2="804.75" y2="338.54"/>
<polyline class="st1" points="648.75,338.54 760.32,338.54 760.32,379.14 "/>
<polygon class="st1" points="666.88,477.18 697.39,446.67 736.03,477.18 706.97,509.35 "/>
<polyline class="st1" points="594.58,557.1 678.37,557.1 659.22,533.86 "/>
<line class="st1" x1="594.58" y1="501.95" x2="648.75" y2="557.1"/>
<line class="st1" x1="732.49" y1="379.14" x2="804.75" y2="450.37"/>
<polyline class="st1" points="798.62,379.14 798.62,561.44 751.13,557.1 805.51,502.71 "/>
<polyline class="st1" points="552.75,622.46 630.88,647.22 552.75,680.16 "/>
<polyline class="st1" points="663.05,615.82 722.79,615.82 751.13,557.1 "/>
<polyline class="st1" points="678.37,615.82 693.68,640.33 704.54,615.82 "/>
<polyline class="st1" points="938.57,680.16 732.49,680.16 765.68,680.16 743.32,648.75 732.49,683.22 "/>
<polyline class="st1" points="778.32,677.1 787.9,648.75 825.43,677.1 "/>
<polyline class="st1" points="740.82,578.46 760.32,611.22 768.62,561.44 "/>
<polyline class="st1" points="778.32,586.46 810.88,611.22 798.62,561.44 875.22,561.44 "/>
<polyline class="st1" points="941.86,539.22 924.24,565.27 1024.58,565.27 1017.43,595.9 "/>
<line class="st1" x1="809.75" y1="606.63" x2="929.6" y2="606.63"/>
<line class="st1" x1="869.67" y1="586.46" x2="1017.43" y2="586.46"/>
<line class="st1" x1="869.67" y1="633.69" x2="982.06" y2="633.69"/>
<line class="st1" x1="813.17" y1="662.93" x2="925.87" y2="662.93"/>
<polyline class="st1" points="798.62,509.61 844.58,483.16 798.62,561.44 "/>
<polyline class="st1" points="798.62,431.22 831.56,453.44 821.6,379.14 "/>
<polyline class="st1" points="849.94,379.14 869.67,405.95 885.94,379.14 "/>
<polygon class="st1" points="880.05,464.93 913.51,435.82 935.73,470.29 904.32,501.95 "/>
<polyline class="st1" points="895.13,483.16 885.94,521 947.22,509.35 1012.32,565.27 "/>
<polyline class="st1" points="922.96,483.16 947.22,509.35 965.6,486.37 982.06,542.29 "/>
<polyline class="st1" points="915.05,379.14 955.64,416.29 970.2,379.14 "/>
<polyline class="st1" points="1001.6,414.75 1024.58,435.82 1024.58,379.14 "/>
<polyline class="st1" points="1001.6,501.95 1024.58,486.37 1024.58,565.27 "/>
<polyline class="st1" points="1118.03,475.65 1157.09,446.54 1188.49,475.65 1158.62,497.1 1118.03,479.61 "/>
<line class="st1" x1="1068.24" y1="438.88" x2="1135.64" y2="386.54"/>
<line class="st1" x1="1198.66" y1="393.71" x2="1249.77" y2="450.37"/>
<line class="st1" x1="1068.24" y1="494.8" x2="1130.28" y2="583.65"/>
<line class="st1" x1="1245.94" y1="501.95" x2="1184.3" y2="573.32"/>
</svg>
